<svg width="60" height="60" viewBox="0 0 60 60" fill="none" xmlns="http://www.w3.org/2000/svg">
<g opacity="0.8">
<path fill-rule="evenodd" clip-rule="evenodd" d="M30.1255 6.42793L41.1167 17.4192L40.3847 19.6154L42.5809 18.8833L53.8104 30.1128L43.327 40.5963L40.9614 39.8078L41.7499 42.1733L30.1255 53.7977L18.8896 42.5619L19.6154 40.3847L17.4382 41.1104L6.44057 30.1128L18.1843 18.3691L20.1923 19.0385L19.523 17.0304L30.1255 6.42793ZM15.8748 42.3755L4.31925 30.8199L3.61215 30.1128L4.31925 29.4057L16.5082 17.2168L15.577 14.4231L18.3707 15.3543L29.4184 4.30661L30.1255 3.5995L30.8326 4.30661L42.3945 15.8685L45.0001 15L44.1315 17.6056L55.9317 29.4057L56.6388 30.1128L55.9317 30.8199L44.7647 41.9869L45.5768 44.4231L43.1406 43.6111L30.8326 55.9191L30.1255 56.6262L29.4184 55.9191L17.6246 44.1252L15 45.0001L15.8748 42.3755Z" fill="white"/>
<path fill-rule="evenodd" clip-rule="evenodd" d="M30.2149 38.8505L21.1494 29.7851L18.4298 29.7851L28.8551 40.2104L28.8551 40.2104L30.2149 41.5702L30.2149 41.5702L30.2149 41.5702L31.5747 40.2104L31.5747 40.2104L42 29.7851L39.2803 29.7851L30.2149 38.8505Z" fill="white"/>
<rect x="34" y="29.7712" width="5.33333" height="5.33333" transform="rotate(135 34 29.7712)" fill="white"/>
</g>
</svg>
